#!OML:ASF X:\für Bonn\!DataBase\2005_08_12_Daniel\c3d\Daniel.ASF
:FULLY-SPECIFIED
:DEGREES
386
root 19.4425 1.23296 0.536838 -1697.63 258.142 142.635
lowerback 26.9141 -3.18274 1.75221
upperback 6.24514 -4.62956 -4.88442
thorax -8.46714 -2.53632 -4.86745
lowerneck -8.65537 1.1806 -3.55315
upperneck 0.109004 1.83283 1.40073
head 1.4589 0.913752 1.11668
rclavicle 6.14245e-014 -3.83445e-014
rhumerus -404.36 8.47826 268.849
rradius 37.1958
rwrist 29.6322
rhand -21.7668 736.503
rfingers 7.12502
rthumb 4.63396 706.573
lclavicle 6.14245e-014 -3.83445e-014
lhumerus -578.989 183.105 -464.732
lradius 48.3188
lwrist -22.4502
lhand -9.37143 -721.987
lfingers 7.12502
lthumb 16.5889 27.3241
rfemur -521.914 -184.883 556.312
rtibia 28.0266
rfoot -4.92199 -21.6878
rtoes 28.0697
lfemur -7.24824 734.515 -23.3403
ltibia 77.4501
lfoot 152.638 565.394
ltoes 24.5904
387
root 19.4416 1.23344 0.538062 -1697.67 258.09 142.676
lowerback 26.9141 -3.14547 1.73898
upperback 6.26603 -4.58455 -4.89123
thorax -8.43844 -2.51417 -4.88353
lowerneck -8.73581 1.12073 -3.58269
upperneck 0.09838 1.75832 1.43398
head 1.47144 0.877628 1.13069
rclavicle -5.26779e-014 1.2478e-013
rhumerus -404.466 7.70543 269.066
rradius 35.2838
rwrist 31.0781
rhand -22.0105 736.471
rfingers 7.12502
rthumb 4.39867 706.536
lclavicle -5.26779e-014 1.2478e-013
lhumerus -579.231 183.04 -464.547
lradius 45.788
lwrist -23.6054
lhand -9.22439 -722.293
lfingers 7.12502
lthumb 16.7304 27.0057
rfemur -521.77 -185.749 556.8
rtibia 27.9404
rfoot -6.35745 -22.1885
rtoes 28.3383
lfemur -7.19502 734.55 -23.3873
ltibia 77.3948
lfoot 152.901 565.249
ltoes 24.2748
388
root 19.4372 1.23312 0.539367 -1697.71 258.054 142.716
lowerback 26.9233 -3.11738 1.73044
upperback 6.28094 -4.55048 -4.8972
thorax -8.4225 -2.49754 -4.89718
lowerneck -8.83297 1.07396 -3.60812
upperneck 0.110919 1.70123 1.47686
head 1.49404 0.850298 1.14817
rclavicle -9.30312e-014 9.86306e-014
rhumerus -404.678 6.90634 269.323
rradius 33.6298
rwrist 32.4603
rhand -21.9549 736.33
rfingers 7.12502
rthumb 4.45233 706.397
lclavicle -9.30312e-014 9.86306e-014
lhumerus -579.53 183.041 -464.368
lradius 43.3625
lwrist -24.7397
lhand -9.34254 -722.637
lfingers 7.12502
lthumb 16.6167 26.6716
rfemur -521.619 -186.704 557.36
rtibia 27.8863
rfoot -8.00599 -22.5986
rtoes 28.7612
lfemur -7.15116 734.566 -23.4306
ltibia 77.3671
lfoot 153.054 565.119
ltoes 24.1674
389
root 19.4346 1.23411 0.541105 -1697.79 258.006 142.803
lowerback 26.9044 -3.08908 1.69412
upperback 6.30911 -4.52371 -4.90154
thorax -8.37633 -2.48384 -4.89122
lowerneck -8.91704 1.03555 -3.62017
upperneck 0.0757021 1.65334 1.49293
head 1.49871 0.826993 1.15431
rclavicle -3.57812e-015 -1.69697e-013
rhumerus -404.887 6.17061 269.603
rradius 32.089
rwrist 33.7756
rhand -21.7594 736.051
rfingers 7.12502
rthumb 4.64107 706.122
lclavicle -3.57812e-015 -1.69697e-013
lhumerus -579.791 183.015 -464.204
lradius 40.9222
lwrist -26.0091
lhand -9.7301 -723.027
lfingers 7.12502
lthumb 16.2435 26.3123
rfemur -521.472 -187.663 557.912
rtibia 27.8475
rfoot -9.56489 -22.9642
rtoes 29.1125
lfemur -7.10298 734.586 -23.4963
ltibia 77.3523
lfoot 153.086 565.028
ltoes 24.0669
390
root 19.4296 1.23433 0.542013 -1697.93 257.959 142.945
lowerback 26.9046 -3.05816 1.64271
upperback 6.3277 -4.49734 -4.90048
thorax -8.3491 -2.47011 -4.86954
lowerneck -9.02407 1.0005 -3.65697
upperneck 0.0840573 1.61316 1.52975
head 1.52129 0.807819 1.17251
rclavicle 3.1408e-014 3.55157e-014
rhumerus -405.096 5.40328 269.943
rradius 30.6103
rwrist 34.9983
rhand -21.4822 735.824
rfingers 7.12502
rthumb 4.90877 705.901
lclavicle 3.1408e-014 3.55157e-014
lhumerus -580.146 183.014 -464.038
lradius 38.6781
lwrist -27.4677
lhand -10.1757 -723.251
lfingers 7.12502
lthumb 15.8145 26.1234
rfemur -521.336 -188.579 558.428
rtibia 27.8415
rfoot -11.1786 -23.185
rtoes 29.6046
lfemur -7.06791 734.616 -23.5616
ltibia 77.3576
lfoot 153.083 564.945
ltoes 24.1316
391
root 19.4259 1.23458 0.543426 -1698.05 257.928 143.073
lowerback 26.9094 -3.02527 1.60774
upperback 6.34586 -4.46376 -4.89891
thorax -8.32501 -2.45319 -4.85923
lowerneck -9.10211 0.965454 -3.67011
upperneck 0.0663518 1.56977 1.55415
head 1.5305 0.786944 1.18177
rclavicle -7.56376e-014 6.25861e-016
rhumerus -405.326 4.5912 270.336
rradius 29.2416
rwrist 36.2094
rhand -21.193 735.576
rfingers 7.12502
rthumb 5.18797 705.659
lclavicle -7.56376e-014 6.25861e-016
lhumerus -580.633 182.988 -463.91
lradius 36.7157
lwrist -29.1388
lhand -10.5301 -723.319
lfingers 7.12502
lthumb 15.4731 26.0815
rfemur -521.217 -189.458 558.964
rtibia 27.867
rfoot -12.4841 -23.4288
rtoes 29.8936
lfemur -7.03152 734.644 -23.6024
ltibia 77.3736
lfoot 153.07 564.863
ltoes 24.2403
